/* XPM */
static char * ogl_xpm[] = {
"20 20 9 1",
" 	c None",
".	c #1D66E0",
"+	c #395212",
"@	c #759B39",
"#	c #ACC97F",
"$	c #688738",
"%	c #8CB152",
"&	c #000000",
"*	c #547423",
"                    ",
"      ..   ..  .    ",
"     .  . .    .    ",
"     .  . .    .    ",
"     .  . . .. .    ",
"     .  . .  . .    ",
"      ..   ..  ...  ",
"      +             ",
"     @#+            ",
"     @#$+           ",
"    @%%#+           ",
"    @%%#$+          ",
"   @%%%#$$+         ",
"   @%%%#$$$+        ",
"  @%%%%#$$$+        ",
"  @%%%%#$$$$+       ",
" @%%%%%%#$$+        ",
" @%%%%%%#$+ & &     ",
"@***%%%%#+ & & &    ",
"    *****&& & & & & "};
